# xmcd
#
# Track frame offsets: 
#        150
#        12124
#        28145
#        41275
#        52731
#        63650
#        75140
#        85130
#        99438
#        116937
#        125855
#        142816
#        153769
#        163757
#        181300
#        197016
#        204617
#        211110
#        222101
#
# Disc length: 3105 seconds
#
# Revision: 0
# Processed by: cddbd v1.5.2PL0 Copyright (c) Steve Scherf et al.
# Submitted via: ExactAudioCopy v0.95b4
#
DISCID=f70c1f13
DTITLE=Various Artist - 36 Bluegrass Hits Disc 2
DYEAR=2006
DGENRE=Bluegrass
TTITLE0=01 Rocky Top -  Osborne Brothers
TTITLE1=02 Will the Circle Be Unbroken - Rose Lee Maphis
TTITLE2=03 Lee Highway Blues - Chubby Anthony
TTITLE3=04 Whitehouse Blues - Merle Travis and Joe Maphis
TTITLE4=05 Roll in My Sweet Baby's Arms - Lester Flatt and Nashville Gra
TTITLE4=ss
TTITLE5=06 Dark Hollow -  Mac Wiseman
TTITLE6=07 Limehouse Blues - Don Reno
TTITLE7=08 Molly and Tenbrooks - Rose Lee  and Joe Maphis
TTITLE8=09 Honey You Don't Know My  Mind - Jimmy Martin
TTITLE9=10 Border Ride - Jim and Jesse
TTITLE10=11 Angel Band - Carl Story
TTITLE11=12 Eight More Miles to Louisville - Grandpa Jones
TTITLE12=13 Wheel Hoss - Josh Graves
TTITLE13=14 White Dove - Osborne Brothers
TTITLE14=15 With Body and Soul - Bill Monroe
TTITLE15=16 Roanoke - Marty Stuart with  Nashville Grass
TTITLE16=17 Big Rock Candy Mountain - Maggie Griffin
TTITLE17=18 I saw the Light - Carl Story
TTITLE18=19 I'll Fly Away - Osborne Brothers
EXTD=
EXTT0=
EXTT1=
EXTT2=
EXTT3=
EXTT4=
EXTT5=
EXTT6=
EXTT7=
EXTT8=
EXTT9=
EXTT10=
EXTT11=
EXTT12=
EXTT13=
EXTT14=
EXTT15=
EXTT16=
EXTT17=
EXTT18=
PLAYORDER=
